<?xml version="1.0" encoding="us-ascii" standalone="no"?><svg xmlns="http://www.w3.org/2000/svg" xmlns:xlink="http://www.w3.org/1999/xlink" contentStyleType="text/css" height="1158px" preserveAspectRatio="none" style="width:741px;height:1158px;background:#FFFFFF;" version="1.1" viewBox="0 0 741 1158" width="741px" zoomAndPan="magnify"><defs/><g><rect fill="#FFFFFF" height="191.1016" style="stroke:#181818;stroke-width:1.0;" width="10" x="183.5" y="114.9609"/><rect fill="#FFFFFF" height="739.9219" style="stroke:#181818;stroke-width:1.0;" width="10" x="183.5" y="327.0625"/><rect fill="#FFFFFF" height="974.375" style="stroke:#181818;stroke-width:1.0;" width="10" x="332.5" y="92.6094"/><rect fill="#FFFFFF" height="432.4063" style="stroke:#181818;stroke-width:1.0;" width="10" x="524.5" y="534.5234"/><rect fill="none" height="153.75" style="stroke:#000000;stroke-width:1.5;" width="253" x="146" y="160.3125"/><rect fill="none" height="216.2969" style="stroke:#000000;stroke-width:1.5;" width="588.5" x="146" y="463.4688"/><rect fill="none" height="152.7578" style="stroke:#000000;stroke-width:1.5;" width="681.5" x="10" y="724.1172"/><line style="stroke:#181818;stroke-width:0.5;stroke-dasharray:5.0,5.0;" x1="47" x2="47" y1="82.6094" y2="1075.9844"/><line style="stroke:#181818;stroke-width:0.5;stroke-dasharray:5.0,5.0;" x1="188" x2="188" y1="82.6094" y2="1075.9844"/><line style="stroke:#181818;stroke-width:0.5;stroke-dasharray:5.0,5.0;" x1="337" x2="337" y1="82.6094" y2="1075.9844"/><line style="stroke:#181818;stroke-width:0.5;stroke-dasharray:5.0,5.0;" x1="529" x2="529" y1="82.6094" y2="1075.9844"/><line style="stroke:#181818;stroke-width:0.5;stroke-dasharray:5.0,5.0;" x1="691.5" x2="691.5" y1="82.6094" y2="1075.9844"/><text fill="#000000" font-family="sans-serif" font-size="14" lengthAdjust="spacing" textLength="49" x="20" y="79.5332">Student</text><ellipse cx="47.5" cy="13.5" fill="#E2E2F0" rx="8" ry="8" style="stroke:#181818;stroke-width:0.5;"/><path d="M47.5,21.5 L47.5,48.5 M34.5,29.5 L60.5,29.5 M47.5,48.5 L34.5,63.5 M47.5,48.5 L60.5,63.5 " fill="none" style="stroke:#181818;stroke-width:0.5;"/><text fill="#000000" font-family="sans-serif" font-size="14" lengthAdjust="spacing" textLength="49" x="20" y="1089.5176">Student</text><ellipse cx="47.5" cy="1101.0938" fill="#E2E2F0" rx="8" ry="8" style="stroke:#181818;stroke-width:0.5;"/><path d="M47.5,1109.0938 L47.5,1136.0938 M34.5,1117.0938 L60.5,1117.0938 M47.5,1136.0938 L34.5,1151.0938 M47.5,1136.0938 L60.5,1151.0938 " fill="none" style="stroke:#181818;stroke-width:0.5;"/><rect fill="#E2E2F0" height="31.6094" rx="2.5" ry="2.5" style="stroke:#181818;stroke-width:0.5;" width="65" x="156" y="50"/><text fill="#000000" font-family="sans-serif" font-size="14" lengthAdjust="spacing" textLength="51" x="163" y="71.5332">Website</text><rect fill="#E2E2F0" height="31.6094" rx="2.5" ry="2.5" style="stroke:#181818;stroke-width:0.5;" width="65" x="156" y="1074.9844"/><text fill="#000000" font-family="sans-serif" font-size="14" lengthAdjust="spacing" textLength="51" x="163" y="1096.5176">Website</text><rect fill="#E2E2F0" height="31.6094" rx="2.5" ry="2.5" style="stroke:#181818;stroke-width:0.5;" width="103" x="286" y="50"/><text fill="#000000" font-family="sans-serif" font-size="14" lengthAdjust="spacing" textLength="89" x="293" y="71.5332">HTTPS server</text><rect fill="#E2E2F0" height="31.6094" rx="2.5" ry="2.5" style="stroke:#181818;stroke-width:0.5;" width="103" x="286" y="1074.9844"/><text fill="#000000" font-family="sans-serif" font-size="14" lengthAdjust="spacing" textLength="89" x="293" y="1096.5176">HTTPS server</text><rect fill="#E2E2F0" height="49.2188" rx="2.5" ry="2.5" style="stroke:#181818;stroke-width:0.5;" width="73" x="493" y="32.3906"/><text fill="#000000" font-family="sans-serif" font-size="14" lengthAdjust="spacing" textLength="53" x="503" y="53.9238">Exercise</text><text fill="#000000" font-family="sans-serif" font-size="14" lengthAdjust="spacing" textLength="59" x="500" y="71.5332">controller</text><rect fill="#E2E2F0" height="49.2188" rx="2.5" ry="2.5" style="stroke:#181818;stroke-width:0.5;" width="73" x="493" y="1074.9844"/><text fill="#000000" font-family="sans-serif" font-size="14" lengthAdjust="spacing" textLength="53" x="503" y="1096.5176">Exercise</text><text fill="#000000" font-family="sans-serif" font-size="14" lengthAdjust="spacing" textLength="59" x="500" y="1114.127">controller</text><rect fill="#E2E2F0" height="49.2188" rx="2.5" ry="2.5" style="stroke:#181818;stroke-width:0.5;" width="66" x="658.5" y="32.3906"/><text fill="#000000" font-family="sans-serif" font-size="14" lengthAdjust="spacing" textLength="52" x="665.5" y="53.9238">Data file</text><text fill="#000000" font-family="sans-serif" font-size="14" lengthAdjust="spacing" textLength="44" x="669.5" y="71.5332">system</text><rect fill="#E2E2F0" height="49.2188" rx="2.5" ry="2.5" style="stroke:#181818;stroke-width:0.5;" width="66" x="658.5" y="1074.9844"/><text fill="#000000" font-family="sans-serif" font-size="14" lengthAdjust="spacing" textLength="52" x="665.5" y="1096.5176">Data file</text><text fill="#000000" font-family="sans-serif" font-size="14" lengthAdjust="spacing" textLength="44" x="669.5" y="1114.127">system</text><rect fill="#FFFFFF" height="191.1016" style="stroke:#181818;stroke-width:1.0;" width="10" x="183.5" y="114.9609"/><rect fill="#FFFFFF" height="739.9219" style="stroke:#181818;stroke-width:1.0;" width="10" x="183.5" y="327.0625"/><rect fill="#FFFFFF" height="974.375" style="stroke:#181818;stroke-width:1.0;" width="10" x="332.5" y="92.6094"/><rect fill="#FFFFFF" height="432.4063" style="stroke:#181818;stroke-width:1.0;" width="10" x="524.5" y="534.5234"/><polygon fill="#181818" points="171.5,110.9609,181.5,114.9609,171.5,118.9609,175.5,114.9609" style="stroke:#181818;stroke-width:1.0;"/><line style="stroke:#181818;stroke-width:1.0;" x1="47.5" x2="177.5" y1="114.9609" y2="114.9609"/><text fill="#000000" font-family="sans-serif" font-size="13" lengthAdjust="spacing" textLength="60" x="54.5" y="110.1045">Enter URL</text><polygon fill="#181818" points="320.5,141.3125,330.5,145.3125,320.5,149.3125,324.5,145.3125" style="stroke:#181818;stroke-width:1.0;"/><line style="stroke:#181818;stroke-width:1.0;" x1="193.5" x2="326.5" y1="145.3125" y2="145.3125"/><text fill="#000000" font-family="sans-serif" font-size="13" lengthAdjust="spacing" textLength="62" x="200.5" y="140.4561">GET /main</text><path d="M146,160.3125 L207,160.3125 L207,168.6641 L197,178.6641 L146,178.6641 L146,160.3125 " fill="#EEEEEE" style="stroke:#000000;stroke-width:1.5;"/><rect fill="none" height="153.75" style="stroke:#000000;stroke-width:1.5;" width="253" x="146" y="160.3125"/><text fill="#000000" font-family="sans-serif" font-size="13" font-weight="bold" lengthAdjust="spacing" textLength="16" x="161" y="174.8076">alt</text><text fill="#000000" font-family="sans-serif" font-size="11" font-weight="bold" lengthAdjust="spacing" textLength="91" x="222" y="173.7314">[correct request</text><text fill="#000000" font-family="sans-serif" font-size="11" font-weight="bold" lengthAdjust="spacing" textLength="89" x="222" y="187.5674">&amp; cookie exists]</text><polygon fill="#181818" points="204.5,209.6875,194.5,213.6875,204.5,217.6875,200.5,213.6875" style="stroke:#181818;stroke-width:1.0;"/><line style="stroke:#181818;stroke-width:1.0;stroke-dasharray:2.0,2.0;" x1="198.5" x2="331.5" y1="213.6875" y2="213.6875"/><text fill="#000000" font-family="sans-serif" font-size="13" lengthAdjust="spacing" textLength="57" x="210.5" y="208.8311">200 /main</text><line style="stroke:#000000;stroke-width:1.0;stroke-dasharray:2.0,2.0;" x1="146" x2="399" y1="222.6875" y2="222.6875"/><text fill="#000000" font-family="sans-serif" font-size="11" font-weight="bold" lengthAdjust="spacing" textLength="127" x="151" y="234.1064">[cookie does not exist]</text><polygon fill="#181818" points="204.5,255.875,194.5,259.875,204.5,263.875,200.5,259.875" style="stroke:#181818;stroke-width:1.0;"/><line style="stroke:#181818;stroke-width:1.0;stroke-dasharray:2.0,2.0;" x1="198.5" x2="331.5" y1="259.875" y2="259.875"/><text fill="#000000" font-family="sans-serif" font-size="13" lengthAdjust="spacing" textLength="111" x="210.5" y="255.0186">200 /main + cookie</text><line style="stroke:#000000;stroke-width:1.0;stroke-dasharray:2.0,2.0;" x1="146" x2="399" y1="268.875" y2="268.875"/><text fill="#000000" font-family="sans-serif" font-size="11" font-weight="bold" lengthAdjust="spacing" textLength="91" x="151" y="280.2939">[wrong request]</text><polygon fill="#181818" points="199.5,302.0625,189.5,306.0625,199.5,310.0625,195.5,306.0625" style="stroke:#181818;stroke-width:1.0;"/><line style="stroke:#181818;stroke-width:1.0;stroke-dasharray:2.0,2.0;" x1="193.5" x2="331.5" y1="306.0625" y2="306.0625"/><text fill="#000000" font-family="sans-serif" font-size="13" lengthAdjust="spacing" textLength="51" x="205.5" y="301.2061">400 error</text><line style="stroke:#A80036;stroke-width:2.0;" x1="179.5" x2="197.5" y1="297.0625" y2="315.0625"/><line style="stroke:#A80036;stroke-width:2.0;" x1="179.5" x2="197.5" y1="315.0625" y2="297.0625"/><polygon fill="#181818" points="58.5,353.4141,48.5,357.4141,58.5,361.4141,54.5,357.4141" style="stroke:#181818;stroke-width:1.0;"/><line style="stroke:#181818;stroke-width:1.0;stroke-dasharray:2.0,2.0;" x1="52.5" x2="182.5" y1="357.4141" y2="357.4141"/><text fill="#000000" font-family="sans-serif" font-size="13" lengthAdjust="spacing" textLength="112" x="64.5" y="352.5576">Show main website</text><polygon fill="#181818" points="171.5,383.7656,181.5,387.7656,171.5,391.7656,175.5,387.7656" style="stroke:#181818;stroke-width:1.0;"/><line style="stroke:#181818;stroke-width:1.0;" x1="47.5" x2="177.5" y1="387.7656" y2="387.7656"/><text fill="#000000" font-family="sans-serif" font-size="13" lengthAdjust="spacing" textLength="97" x="54.5" y="382.9092">Choose exercise</text><polygon fill="#181818" points="320.5,414.1172,330.5,418.1172,320.5,422.1172,324.5,418.1172" style="stroke:#181818;stroke-width:1.0;"/><line style="stroke:#181818;stroke-width:1.0;" x1="193.5" x2="326.5" y1="418.1172" y2="418.1172"/><text fill="#000000" font-family="sans-serif" font-size="13" lengthAdjust="spacing" textLength="99" x="200.5" y="413.2607">GET /&lt;exercise&gt;</text><polygon fill="#181818" points="679.5,444.4688,689.5,448.4688,679.5,452.4688,683.5,448.4688" style="stroke:#181818;stroke-width:1.0;"/><line style="stroke:#181818;stroke-width:1.0;" x1="342.5" x2="685.5" y1="448.4688" y2="448.4688"/><text fill="#000000" font-family="sans-serif" font-size="13" lengthAdjust="spacing" textLength="107" x="349.5" y="443.6123">Find exercise data</text><path d="M146,463.4688 L207,463.4688 L207,471.8203 L197,481.8203 L146,481.8203 L146,463.4688 " fill="#EEEEEE" style="stroke:#000000;stroke-width:1.5;"/><rect fill="none" height="216.2969" style="stroke:#000000;stroke-width:1.5;" width="588.5" x="146" y="463.4688"/><text fill="#000000" font-family="sans-serif" font-size="13" font-weight="bold" lengthAdjust="spacing" textLength="16" x="161" y="477.9639">alt</text><text fill="#000000" font-family="sans-serif" font-size="11" font-weight="bold" lengthAdjust="spacing" textLength="112" x="222" y="476.8877">[exercise data exist]</text><polygon fill="#181818" points="353.5,500.1719,343.5,504.1719,353.5,508.1719,349.5,504.1719" style="stroke:#181818;stroke-width:1.0;"/><line style="stroke:#181818;stroke-width:1.0;stroke-dasharray:2.0,2.0;" x1="347.5" x2="690.5" y1="504.1719" y2="504.1719"/><text fill="#000000" font-family="sans-serif" font-size="13" lengthAdjust="spacing" textLength="80" x="359.5" y="499.3154">Exercise data</text><polygon fill="#181818" points="512.5,530.5234,522.5,534.5234,512.5,538.5234,516.5,534.5234" style="stroke:#181818;stroke-width:1.0;"/><line style="stroke:#181818;stroke-width:1.0;" x1="342.5" x2="518.5" y1="534.5234" y2="534.5234"/><text fill="#000000" font-family="sans-serif" font-size="13" lengthAdjust="spacing" textLength="163" x="349.5" y="529.667">Generate exercise controller</text><polygon fill="#181818" points="353.5,560.875,343.5,564.875,353.5,568.875,349.5,564.875" style="stroke:#181818;stroke-width:1.0;"/><line style="stroke:#181818;stroke-width:1.0;stroke-dasharray:2.0,2.0;" x1="347.5" x2="523.5" y1="564.875" y2="564.875"/><text fill="#000000" font-family="sans-serif" font-size="13" lengthAdjust="spacing" textLength="89" x="359.5" y="560.0186">Exercise HTML</text><polygon fill="#181818" points="204.5,591.2266,194.5,595.2266,204.5,599.2266,200.5,595.2266" style="stroke:#181818;stroke-width:1.0;"/><line style="stroke:#181818;stroke-width:1.0;stroke-dasharray:2.0,2.0;" x1="198.5" x2="331.5" y1="595.2266" y2="595.2266"/><text fill="#000000" font-family="sans-serif" font-size="13" lengthAdjust="spacing" textLength="94" x="210.5" y="590.3701">200 /&lt;exercise&gt;</text><line style="stroke:#000000;stroke-width:1.0;stroke-dasharray:2.0,2.0;" x1="146" x2="734.5" y1="604.2266" y2="604.2266"/><text fill="#000000" font-family="sans-serif" font-size="11" font-weight="bold" lengthAdjust="spacing" textLength="150" x="151" y="615.6455">[exercise data do not exist]</text><polygon fill="#181818" points="353.5,637.4141,343.5,641.4141,353.5,645.4141,349.5,641.4141" style="stroke:#181818;stroke-width:1.0;"/><line style="stroke:#181818;stroke-width:1.0;stroke-dasharray:2.0,2.0;" x1="347.5" x2="690.5" y1="641.4141" y2="641.4141"/><text fill="#000000" font-family="sans-serif" font-size="13" lengthAdjust="spacing" textLength="45" x="359.5" y="636.5576">No data</text><polygon fill="#181818" points="204.5,667.7656,194.5,671.7656,204.5,675.7656,200.5,671.7656" style="stroke:#181818;stroke-width:1.0;"/><line style="stroke:#181818;stroke-width:1.0;stroke-dasharray:2.0,2.0;" x1="198.5" x2="331.5" y1="671.7656" y2="671.7656"/><text fill="#000000" font-family="sans-serif" font-size="13" lengthAdjust="spacing" textLength="51" x="210.5" y="666.9092">404 error</text><polygon fill="#181818" points="58.5,705.1172,48.5,709.1172,58.5,713.1172,54.5,709.1172" style="stroke:#181818;stroke-width:1.0;"/><line style="stroke:#181818;stroke-width:1.0;stroke-dasharray:2.0,2.0;" x1="52.5" x2="182.5" y1="709.1172" y2="709.1172"/><text fill="#000000" font-family="sans-serif" font-size="13" lengthAdjust="spacing" textLength="85" x="64.5" y="704.2607">Show exercise</text><path d="M10,724.1172 L83,724.1172 L83,732.4688 L73,742.4688 L10,742.4688 L10,724.1172 " fill="#EEEEEE" style="stroke:#000000;stroke-width:1.5;"/><rect fill="none" height="152.7578" style="stroke:#000000;stroke-width:1.5;" width="681.5" x="10" y="724.1172"/><text fill="#000000" font-family="sans-serif" font-size="13" font-weight="bold" lengthAdjust="spacing" textLength="28" x="25" y="738.6123">loop</text><text fill="#000000" font-family="sans-serif" font-size="11" font-weight="bold" lengthAdjust="spacing" textLength="131" x="98" y="737.5361">[till the end of exercise]</text><polygon fill="#181818" points="171.5,760.8203,181.5,764.8203,171.5,768.8203,175.5,764.8203" style="stroke:#181818;stroke-width:1.0;"/><line style="stroke:#181818;stroke-width:1.0;" x1="47.5" x2="177.5" y1="764.8203" y2="764.8203"/><text fill="#000000" font-family="sans-serif" font-size="13" lengthAdjust="spacing" textLength="43" x="54.5" y="759.9639">Answer</text><polygon fill="#181818" points="320.5,791.1719,330.5,795.1719,320.5,799.1719,324.5,795.1719" style="stroke:#181818;stroke-width:1.0;"/><line style="stroke:#181818;stroke-width:1.0;" x1="193.5" x2="326.5" y1="795.1719" y2="795.1719"/><text fill="#000000" font-family="sans-serif" font-size="13" lengthAdjust="spacing" textLength="115" x="200.5" y="790.3154">PUT &lt;answer data&gt;</text><polygon fill="#181818" points="512.5,821.5234,522.5,825.5234,512.5,829.5234,516.5,825.5234" style="stroke:#181818;stroke-width:1.0;"/><line style="stroke:#181818;stroke-width:1.0;" x1="342.5" x2="518.5" y1="825.5234" y2="825.5234"/><text fill="#000000" font-family="sans-serif" font-size="13" lengthAdjust="spacing" textLength="138" x="349.5" y="820.667">Register &lt;answer data&gt;</text><line style="stroke:#181818;stroke-width:1.0;" x1="534.5" x2="576.5" y1="855.875" y2="855.875"/><line style="stroke:#181818;stroke-width:1.0;" x1="576.5" x2="576.5" y1="855.875" y2="868.875"/><line style="stroke:#181818;stroke-width:1.0;" x1="535.5" x2="576.5" y1="868.875" y2="868.875"/><polygon fill="#181818" points="545.5,864.875,535.5,868.875,545.5,872.875,541.5,868.875" style="stroke:#181818;stroke-width:1.0;"/><text fill="#000000" font-family="sans-serif" font-size="13" lengthAdjust="spacing" textLength="138" x="541.5" y="851.0186">Register &lt;answer data&gt;</text><polygon fill="#181818" points="320.5,902.2266,330.5,906.2266,320.5,910.2266,324.5,906.2266" style="stroke:#181818;stroke-width:1.0;"/><line style="stroke:#181818;stroke-width:1.0;" x1="193.5" x2="326.5" y1="906.2266" y2="906.2266"/><text fill="#000000" font-family="sans-serif" font-size="13" lengthAdjust="spacing" textLength="105" x="200.5" y="901.3701">GET &lt;final score&gt;</text><polygon fill="#181818" points="512.5,932.5781,522.5,936.5781,512.5,940.5781,516.5,936.5781" style="stroke:#181818;stroke-width:1.0;"/><line style="stroke:#181818;stroke-width:1.0;" x1="342.5" x2="518.5" y1="936.5781" y2="936.5781"/><text fill="#000000" font-family="sans-serif" font-size="13" lengthAdjust="spacing" textLength="88" x="349.5" y="931.7217">Finish exercise</text><polygon fill="#181818" points="353.5,962.9297,343.5,966.9297,353.5,970.9297,349.5,966.9297" style="stroke:#181818;stroke-width:1.0;"/><line style="stroke:#181818;stroke-width:1.0;stroke-dasharray:2.0,2.0;" x1="347.5" x2="528.5" y1="966.9297" y2="966.9297"/><text fill="#000000" font-family="sans-serif" font-size="13" lengthAdjust="spacing" textLength="87" x="359.5" y="962.0732">Exercise score</text><polygon fill="#181818" points="679.5,993.2813,689.5,997.2813,679.5,1001.2813,683.5,997.2813" style="stroke:#181818;stroke-width:1.0;"/><line style="stroke:#181818;stroke-width:1.0;" x1="342.5" x2="685.5" y1="997.2813" y2="997.2813"/><text fill="#000000" font-family="sans-serif" font-size="13" lengthAdjust="spacing" textLength="110" x="349.5" y="992.4248">Log exercise score</text><polygon fill="#181818" points="204.5,1023.6328,194.5,1027.6328,204.5,1031.6328,200.5,1027.6328" style="stroke:#181818;stroke-width:1.0;"/><line style="stroke:#181818;stroke-width:1.0;stroke-dasharray:2.0,2.0;" x1="198.5" x2="331.5" y1="1027.6328" y2="1027.6328"/><text fill="#000000" font-family="sans-serif" font-size="13" lengthAdjust="spacing" textLength="100" x="210.5" y="1022.7764">200 &lt;final score&gt;</text><polygon fill="#181818" points="58.5,1053.9844,48.5,1057.9844,58.5,1061.9844,54.5,1057.9844" style="stroke:#181818;stroke-width:1.0;"/><line style="stroke:#181818;stroke-width:1.0;stroke-dasharray:2.0,2.0;" x1="52.5" x2="182.5" y1="1057.9844" y2="1057.9844"/><text fill="#000000" font-family="sans-serif" font-size="13" lengthAdjust="spacing" textLength="91" x="64.5" y="1053.1279">View final score</text><!--SRC=[XLF1Rjim3BthAuWSTWc25KDFGH1WsBBra0r5usw7jGVLPc9XgfX9RDp-_IZPiQqqtN8pttlK8n-ZIoOFamq_LUXu0Zf0OBNNdarfzjenJ7xYGp2C2MiUGWvU5SNr1WBw0_fMxGyvO_MClZG1xrn9ZZrPsp7nkSoPdpLhs1ehrF0I61yJhPAgqYMRWsPCxGF3R1cjm7GASrWvHW-tDskbOaqW8Kdzwwg0zu_QEAKjGqdUOydWySyJ1hvpxwH4lmsA3nCuA91V5CwwtdFuS77HDK0Ry4Yl20CuubRtBnbCEqshRpovtV7zCxfBqQ7tv1DM2SdJIzeukgeTxLTjAidflfrns4ea9K84M7fjQceWUMZQz4PBcyEdcYZ4mTjapgnjSSIMAfbSfXW4_M9SrGkxR2pdbT5cqkUixxtAXFqAbl4MujFeqCTv-dR3oIHsFt2ydLY8kZFjhuflwxUI6OsMOicjLtIIxSa4t-d4-oY-oow-FguiZNxRbcWFRAm5hkLvsITj1tISqqSN6fayY-Vwje25Ja1oqWVKhl06T-9Si9oJzlG_ZjX-VGgBhN7QGf3_3vwy9RTWGZrOVoEC95KLPk7bLxMctP13ot-TNEuaM_0FWmsCOAN-0W00]--></g></svg>