<?xml version="1.0" encoding="us-ascii" standalone="no"?><svg xmlns="http://www.w3.org/2000/svg" xmlns:xlink="http://www.w3.org/1999/xlink" contentStyleType="text/css" height="510px" preserveAspectRatio="none" style="width:973px;height:510px;background:#FFFFFF;" version="1.1" viewBox="0 0 973 510" width="973px" zoomAndPan="magnify"><defs/><g><!--cluster Studying--><g id="cluster_Studying"><path d="M164,231 L226,231 A3.75,3.75 0 0 1 228.5,233.5 L235.5,254.6094 L964,254.6094 A2.5,2.5 0 0 1 966.5,257.1094 L966.5,500.5 A2.5,2.5 0 0 1 964,503 L164,503 A2.5,2.5 0 0 1 161.5,500.5 L161.5,233.5 A2.5,2.5 0 0 1 164,231 " fill="none" style="stroke:#000000;stroke-width:1.5;"/><line style="stroke:#000000;stroke-width:1.5;" x1="161.5" x2="235.5" y1="254.6094" y2="254.6094"/><text fill="#000000" font-family="sans-serif" font-size="14" font-weight="bold" lengthAdjust="spacing" textLength="61" x="165.5" y="247.5332">Studying</text></g><!--cluster ccp--><g id="cluster_ccp"><path d="M162.5,6 L281.5,6 A3.75,3.75 0 0 1 284,8.5 L291,29.6094 L651,29.6094 A2.5,2.5 0 0 1 653.5,32.1094 L653.5,196.5 A2.5,2.5 0 0 1 651,199 L162.5,199 A2.5,2.5 0 0 1 160,196.5 L160,8.5 A2.5,2.5 0 0 1 162.5,6 " fill="none" style="stroke:#000000;stroke-width:1.5;"/><line style="stroke:#000000;stroke-width:1.5;" x1="160" x2="291" y1="29.6094" y2="29.6094"/><text fill="#000000" font-family="sans-serif" font-size="14" font-weight="bold" lengthAdjust="spacing" textLength="118" x="164" y="22.5332">Content creation</text></g><g id="elem_ust1"><ellipse cx="260.3112" cy="294.9034" fill="#F1F1F1" rx="63.8112" ry="27.9034" style="stroke:#181818;stroke-width:0.5;"/><text fill="#000000" font-family="sans-serif" font-size="14" lengthAdjust="spacing" textLength="74" x="223.3112" y="289.8272">Do a simple</text><text fill="#000000" font-family="sans-serif" font-size="14" lengthAdjust="spacing" textLength="52" x="234.3112" y="307.4366">exercise</text></g><g id="elem_ust2"><ellipse cx="260.5894" cy="385.9034" fill="#F1F1F1" rx="71.5894" ry="27.9034" style="stroke:#181818;stroke-width:0.5;"/><text fill="#000000" font-family="sans-serif" font-size="14" lengthAdjust="spacing" textLength="85" x="218.0894" y="380.8272">Do a complex</text><text fill="#000000" font-family="sans-serif" font-size="14" lengthAdjust="spacing" textLength="52" x="234.5894" y="398.4366">exercise</text></g><g id="elem_ust3"><ellipse cx="548.3631" cy="368.109" fill="#F1F1F1" rx="63.8631" ry="15.609" style="stroke:#181818;stroke-width:0.5;"/><text fill="#000000" font-family="sans-serif" font-size="14" lengthAdjust="spacing" textLength="73" x="508.8631" y="372.6256">Show a hint</text></g><g id="elem_ust4"><ellipse cx="548.6819" cy="290.1364" fill="#F1F1F1" rx="78.6819" ry="18.1364" style="stroke:#181818;stroke-width:0.5;"/><text fill="#000000" font-family="sans-serif" font-size="14" lengthAdjust="spacing" textLength="111" x="491.5947" y="294.3083">Show the solution</text></g><g id="elem_ust5"><ellipse cx="860.1838" cy="421.9041" fill="#F1F1F1" rx="90.6838" ry="27.9041" style="stroke:#181818;stroke-width:0.5;"/><text fill="#000000" font-family="sans-serif" font-size="14" lengthAdjust="spacing" textLength="112" x="803.7106" y="416.9624">Show the detailed</text><text fill="#000000" font-family="sans-serif" font-size="14" lengthAdjust="spacing" textLength="49" x="835.2106" y="434.5717">solution</text></g><g id="elem_ust6"><ellipse cx="260.2516" cy="467.9503" fill="#F1F1F1" rx="82.7516" ry="18.9503" style="stroke:#181818;stroke-width:0.5;"/><text fill="#000000" font-family="sans-serif" font-size="14" lengthAdjust="spacing" textLength="121" x="199.7516" y="471.6788">View overall scores</text></g><g id="elem_ucc1"><ellipse cx="260.3525" cy="67.8705" fill="#F1F1F1" rx="74.8525" ry="17.3705" style="stroke:#181818;stroke-width:0.5;"/><text fill="#000000" font-family="sans-serif" font-size="14" lengthAdjust="spacing" textLength="101" x="206.8525" y="72.3871">Add an exercise</text></g><g id="elem_ucc2"><ellipse cx="260.355" cy="138.171" fill="#F1F1F1" rx="76.355" ry="17.671" style="stroke:#181818;stroke-width:0.5;"/><text fill="#000000" font-family="sans-serif" font-size="14" lengthAdjust="spacing" textLength="105" x="205.1233" y="142.6255">View an exercise</text></g><g id="elem_ucc3"><ellipse cx="548.481" cy="139.7962" fill="#F1F1F1" rx="74.481" ry="17.2962" style="stroke:#181818;stroke-width:0.5;"/><text fill="#000000" font-family="sans-serif" font-size="14" lengthAdjust="spacing" textLength="100" x="495.481" y="144.3128">Edit an exercise</text></g><g id="elem_ucc4"><ellipse cx="548.597" cy="69.1194" fill="#F1F1F1" rx="81.097" ry="18.6194" style="stroke:#181818;stroke-width:0.5;"/><text fill="#000000" font-family="sans-serif" font-size="14" lengthAdjust="spacing" textLength="117" x="489.5843" y="72.9982">Delete an exercise</text></g><!--entity st--><g id="elem_st"><ellipse cx="55.5" cy="355.5" fill="#F1F1F1" rx="8" ry="8" style="stroke:#181818;stroke-width:0.5;"/><path d="M55.5,363.5 L55.5,390.5 M42.5,371.5 L68.5,371.5 M55.5,390.5 L42.5,405.5 M55.5,390.5 L68.5,405.5 " fill="none" style="stroke:#181818;stroke-width:0.5;"/><text fill="#000000" font-family="sans-serif" font-size="14" lengthAdjust="spacing" textLength="49" x="31" y="421.5332">Student</text></g><!--entity cc--><g id="elem_cc"><ellipse cx="55.5" cy="160.5" fill="#F1F1F1" rx="8" ry="8" style="stroke:#181818;stroke-width:0.5;"/><path d="M55.5,168.5 L55.5,195.5 M42.5,176.5 L68.5,176.5 M55.5,195.5 L42.5,210.5 M55.5,195.5 L68.5,210.5 " fill="none" style="stroke:#181818;stroke-width:0.5;"/><text fill="#000000" font-family="sans-serif" font-size="14" lengthAdjust="spacing" textLength="99" x="6" y="226.5332">Content creator</text></g><!--link st to ust1--><g id="link_st_ust1"><path d="M80.28,372.57 C97.67,362.97 121.98,350.04 144,340 C165.54,330.18 184.278,322.6127 205.058,314.7527 " fill="none" id="st-to-ust1" style="stroke:#181818;stroke-width:1.0;"/><polygon fill="#181818" points="210.67,312.63,200.8369,312.0728,205.9934,314.3989,203.6672,319.5554,210.67,312.63" style="stroke:#181818;stroke-width:1.0;"/></g><!--link st to ust2--><g id="link_st_ust2"><path d="M80.18,386 C106.64,386 144.74,386 182.58,386 " fill="none" id="st-to-ust2" style="stroke:#181818;stroke-width:1.0;"/><polygon fill="#181818" points="188.58,386,179.58,382,183.58,386,179.58,390,188.58,386" style="stroke:#181818;stroke-width:1.0;"/></g><!--link st to ust6--><g id="link_st_ust6"><path d="M80.08,399.9 C97.37,409.72 121.65,422.73 144,432 C163.89,440.25 180.612,445.9394 200.422,451.8694 " fill="none" id="st-to-ust6" style="stroke:#181818;stroke-width:1.0;"/><polygon fill="#181818" points="206.17,453.59,198.6951,447.1771,201.38,452.1561,196.4009,454.8411,206.17,453.59" style="stroke:#181818;stroke-width:1.0;"/></g><!--reverse link ust1 to ust3--><g id="link_ust1_ust3"><path d="M322.1236,310.4741 C376.6136,324.3841 453.34,343.97 503.64,356.81 " fill="none" id="ust1-backto-ust3" style="stroke:#181818;stroke-width:1.0;stroke-dasharray:7.0,7.0;"/><polygon fill="#181818" points="316.31,308.99,324.041,315.0918,321.1546,310.2267,326.0197,307.3404,316.31,308.99" style="stroke:#181818;stroke-width:1.0;"/><text fill="#000000" font-family="sans-serif" font-size="13" lengthAdjust="spacing" textLength="60" x="375.5" y="321.4951">&#171;extends&#187;</text></g><!--reverse link ust2 to ust3--><g id="link_ust2_ust3"><path d="M328.7233,401.0861 C362.6533,406.9161 399.59,410.05 437.5,404 C464.49,399.7 493.84,389.81 515.44,381.48 " fill="none" id="ust2-backto-ust3" style="stroke:#181818;stroke-width:1.0;stroke-dasharray:7.0,7.0;"/><polygon fill="#181818" points="322.81,400.07,331.0026,405.5363,327.7378,400.9167,332.3574,397.6519,322.81,400.07" style="stroke:#181818;stroke-width:1.0;"/><text fill="#000000" font-family="sans-serif" font-size="13" lengthAdjust="spacing" textLength="60" x="375.5" y="400.4951">&#171;extends&#187;</text></g><!--link ust1 to ust4--><g id="link_ust1_ust4"><path d="M324.62,293.9 C367.47,293.15 418.4109,292.2552 464.0209,291.4552 " fill="none" id="ust1-to-ust4" style="stroke:#181818;stroke-width:1.0;stroke-dasharray:7.0,7.0;"/><polygon fill="#181818" points="470.02,291.35,460.9512,287.5085,465.0208,291.4377,461.0915,295.5072,470.02,291.35" style="stroke:#181818;stroke-width:1.0;"/><text fill="#000000" font-family="sans-serif" font-size="13" lengthAdjust="spacing" textLength="62" x="374.5" y="289.4951">&#171;includes&#187;</text></g><!--link ust2 to ust5--><g id="link_ust2_ust5"><path d="M318.63,402.53 C336.1,406.97 355.46,411.29 373.5,414 C511.26,434.69 667.4764,432.2761 765.1664,427.7761 " fill="none" id="ust2-to-ust5" style="stroke:#181818;stroke-width:1.0;stroke-dasharray:7.0,7.0;"/><polygon fill="#181818" points="771.16,427.5,761.9855,423.9184,766.1653,427.7301,762.3536,431.9099,771.16,427.5" style="stroke:#181818;stroke-width:1.0;"/><text fill="#000000" font-family="sans-serif" font-size="13" lengthAdjust="spacing" textLength="62" x="517.5" y="420.4951">&#171;includes&#187;</text></g><!--reverse link ust4 to ust5--><g id="link_ust4_ust5"><path d="M597.6374,307.1442 C620.7174,315.5542 644.03,324.39 669.5,335 C717.96,355.18 772.32,380.41 810.35,398.5 " fill="none" id="ust4-backto-ust5" style="stroke:#181818;stroke-width:1.0;stroke-dasharray:7.0,7.0;"/><polygon fill="#181818" points="592,305.09,599.0867,311.9295,596.6978,306.8018,601.8256,304.413,592,305.09" style="stroke:#181818;stroke-width:1.0;"/><text fill="#000000" font-family="sans-serif" font-size="13" lengthAdjust="spacing" textLength="60" x="678.5" y="336.4951">&#171;extends&#187;</text></g><!--link cc to ccp--><g id="link_cc_ccp"><path d="M105.12,191 C119.9,191 136.755,191 153.7686,191 C154.8319,191 155.8959,191 156.96,191 C157.4921,191 158.0242,191 158.5563,191 C158.8223,191 153.0883,191 153.3544,191 " fill="none" id="cc-to-ccp" style="stroke:#181818;stroke-width:1.0;"/><polygon fill="#181818" points="159.3544,191,150.3544,187,154.3544,191,150.3544,195,159.3544,191" style="stroke:#181818;stroke-width:1.0;"/></g><!--reverse link ucc2 to ucc3--><g id="link_ucc2_ucc3"><path d="M343.0199,138.5712 C385.2199,138.8612 431.59,139.19 473.54,139.48 " fill="none" id="ucc2-backto-ucc3" style="stroke:#181818;stroke-width:1.0;stroke-dasharray:7.0,7.0;"/><polygon fill="#181818" points="337.02,138.53,345.9923,142.5918,342.0199,138.5644,346.0473,134.5919,337.02,138.53" style="stroke:#181818;stroke-width:1.0;"/><text fill="#000000" font-family="sans-serif" font-size="13" lengthAdjust="spacing" textLength="60" x="375.5" y="135.4951">&#171;extends&#187;</text></g><!--reverse link ucc2 to ucc4--><g id="link_ucc2_ucc4"><path d="M319.7928,123.9335 C370.2628,111.7635 440.47,94.82 491.96,82.4 " fill="none" id="ucc2-backto-ucc4" style="stroke:#181818;stroke-width:1.0;stroke-dasharray:7.0,7.0;"/><polygon fill="#181818" points="313.96,125.34,323.6469,127.1188,318.8207,124.1679,321.7716,119.3417,313.96,125.34" style="stroke:#181818;stroke-width:1.0;"/><text fill="#000000" font-family="sans-serif" font-size="13" lengthAdjust="spacing" textLength="60" x="375.5" y="94.4951">&#171;extends&#187;</text></g><!--SRC=[TP9DRi8m48NtFiM8FP6WWKKL8LMb9q3gYeqrdXAhnexiIQ6gUlSwVuKa9YlBxtlZcNanzC703hm-bGnAUqBMpWg9x3mi3bmhihm06I2mg2H-oXD1S_sjxGb-1CIl3eGo42ps3YG4VQuC7IrToQCEr9hhmAi4YwvXhtDuFOOFfRj4lDHzBv5uIX1S4WHdwcQ4WSiVS8fOQaFgQAUEpTZnhka2xekyD0O2EazX8BVYLuZ0i5pkkWblv_NTUIj4eqAHPMtdy0n50NHbiYh0RjUewyTgPywojbRUoTgYYT7StBsycSkYTVNLD_FgGzQlpiPB1lGauqKx8-9_vcDzM1TYDVq9NfG2QM6SAE8giTK4DWd-JMbEOPFqzsI8AGNcJKI8RHInsRYD-4QtZLXbdiITcYTszGS0]--></g></svg>